<svg width="21" height="22" viewBox="0 0 21 22" fill="none" xmlns="http://www.w3.org/2000/svg">
<path d="M20.7932 8.81675C20.9271 9.51967 21 10.2546 21 11.0215C21 17.0203 16.903 21.2858 10.715 21.2858C9.30774 21.2862 7.91422 21.0149 6.61402 20.4874C5.31383 19.9598 4.13245 19.1864 3.13739 18.2113C2.14232 17.2362 1.35308 16.0785 0.814755 14.8044C0.27643 13.5303 -0.000428558 12.1648 4.97926e-07 10.7858C-0.000428558 9.40677 0.27643 8.0412 0.814755 6.76709C1.35308 5.49298 2.14232 4.33531 3.13739 3.36021C4.13245 2.38511 5.31383 1.6117 6.61402 1.08418C7.91422 0.55665 9.30774 0.285347 10.715 0.285767C13.6081 0.285767 16.0257 1.32894 17.8804 3.02276L14.8599 5.98269V5.97522C13.7355 4.92565 12.3085 4.387 10.715 4.387C7.1796 4.387 4.30602 7.31386 4.30602 10.7794C4.30602 14.2438 7.1796 17.1771 10.715 17.1771C13.9227 17.1771 16.1062 15.3798 16.5547 12.9116H10.715V8.81675H20.7943H20.7932Z" fill="black"/>
</svg>
