<svg width="25" height="25" viewBox="0 0 25 25" fill="none" xmlns="http://www.w3.org/2000/svg">
<path d="M15.2344 13.2461L10.7754 14.0215C10.7754 14.0215 9.29105 17.8027 9.19926 18.0586C9.10746 18.3145 9.11137 18.7188 9.51566 18.7188C10.0293 18.7188 12.6368 18.7051 12.6368 18.7051C12.6368 18.7051 12.0039 21.7578 11.9668 22.0313C11.9297 22.3047 12.2227 22.5449 12.4805 22.2695C12.7383 21.9941 16.2911 17.4277 16.4453 17.2051C16.7207 16.8066 16.4551 16.4395 16.1426 16.4219C15.8301 16.4043 13.7364 16.4492 13.7364 16.4492L15.2344 13.2461Z" fill="#FECA18"/>
<path d="M14.0468 13.7773C14.0468 13.7773 13.0527 15.9766 13.0156 16.1016C12.9062 16.4727 13.3867 16.623 13.5234 16.3223C13.6601 16.0195 14.8437 13.5723 14.8437 13.5723L14.0468 13.7773ZM9.76363 18.002C10.0254 17.9941 12.3222 17.9883 12.5136 17.9746C12.8711 17.9473 12.9257 18.4414 12.5136 18.4414C12.0859 18.4414 9.83199 18.4492 9.69527 18.4551C9.37887 18.4707 9.3359 18.0156 9.76363 18.002Z" fill="#FDB900"/>
<path d="M11.6055 13.4785C11.6055 13.4785 10.4337 16.4199 10.3672 16.6406C10.0919 17.5625 11.0821 17.5352 11.3438 17.0117C11.4727 16.7519 12.7325 14.084 12.7872 13.6016C12.8419 13.1211 11.6055 13.4785 11.6055 13.4785ZM11.9161 16.9082C11.7481 16.793 11.545 16.8945 11.4219 17.0879C11.2989 17.2812 11.1192 17.5957 11.3946 17.7617C11.6426 17.9102 11.8614 17.6113 11.959 17.4727C12.0547 17.334 12.1778 17.0859 11.9161 16.9082ZM13.9337 17.5391C13.4864 17.4434 13.3419 17.8144 13.2462 18.2539C13.1505 18.6934 12.7911 20.1152 12.7247 20.4668C12.629 20.9609 13.0821 21.0312 13.2755 20.5762C13.42 20.2363 14.0469 18.7031 14.127 18.459C14.2501 18.0898 14.3868 17.6367 13.9337 17.5391Z" fill="#FFE36A"/>
<path d="M21.0782 9.03516C21.0782 9.03516 21.586 2.20313 15.7442 1.33594C10.4922 0.556646 9.46099 5.54297 9.46099 5.54297C9.46099 5.54297 7.47662 5.08008 6.05084 6.35352C4.63482 7.61915 4.7442 9.11719 4.7442 9.11719C4.7442 9.11719 1.25201 8.56641 0.894588 11.5645C0.560604 14.3652 4.68951 13.668 4.68951 13.668L24.295 12.2246C24.295 12.2246 24.7598 10.752 23.2774 9.64063C22.3965 8.97852 21.0782 9.03516 21.0782 9.03516Z" fill="#E4EAEE"/>
<path d="M10.5098 10.584C10.6739 10.5293 11.6094 11.3281 14.3047 11.3535C18.0079 11.3906 20.8125 9.20898 20.8125 9.20898C20.8125 9.20898 20.9063 9.87305 20.6114 10.3457C20.2442 10.9316 19.6758 11.043 19.6758 11.043C19.6758 11.043 20.7032 11.7578 22.1133 11.6484C23.3848 11.5488 24.3047 11.1172 24.3047 11.1172C24.3047 11.1172 24.4278 11.7441 24.3594 12.3555C24.2227 13.5742 23.5079 14.0703 22.7188 14.1602C22.1387 14.2266 17.1836 14.25 15.1485 14.2695C13.3145 14.2871 3.96879 14.5215 3.01372 14.416C2.02348 14.3066 1.27153 13.7109 0.99809 12.8574C0.789106 12.2109 0.888715 11.7949 0.888715 11.7949C0.888715 11.7949 2.70903 12.2773 3.73051 12.1621C5.01372 12.0156 5.87504 11.209 5.87504 11.209C5.87504 11.209 6.64457 11.6484 8.34965 11.502C9.81645 11.373 10.5098 10.584 10.5098 10.584Z" fill="url(#paint0_radial_308_47)"/>
<path d="M20.293 14.4922C20.0938 14.3809 19.3848 15.043 18.9863 15.4414C18.7422 15.6855 17.9648 16.3242 17.8594 16.9395C17.5977 18.4512 19.3301 18.7949 20.0176 18.0938C20.5371 17.5645 20.4434 16.5313 20.4434 16.1836C20.4453 15.7012 20.541 14.6289 20.293 14.4922ZM6.05859 15.3047C5.86914 15.1953 5.18945 15.8359 4.80664 16.2246C4.57226 16.4609 3.82812 17.0801 3.72265 17.6816C3.46484 19.1563 5.11523 19.502 5.77539 18.8223C6.27343 18.3086 6.1914 17.2988 6.19335 16.959C6.19531 16.4883 6.29296 15.4414 6.05859 15.3047ZM9.20898 19.6758C8.99609 19.5957 8.27929 20.248 7.88086 20.6465C7.63671 20.8906 6.91406 21.5156 6.80859 22.1309C6.54687 23.6426 8.22461 24 8.91211 23.2988C9.43164 22.7695 9.3457 21.7363 9.33789 21.3887C9.31836 20.4824 9.35547 19.7305 9.20898 19.6758Z" fill="#52C0EE"/>
<path d="M19.0976 16.4492C18.8242 16.3066 18.4921 16.3672 18.2812 16.8066C18.0703 17.2461 18.2441 17.5957 18.4648 17.6953C18.7187 17.8125 19.0331 17.7051 19.2441 17.3477C19.455 16.9902 19.3261 16.5684 19.0976 16.4492ZM7.81439 21.666C7.53314 21.5684 7.22455 21.6719 7.08393 22.123C6.9433 22.5742 7.1601 22.8828 7.38471 22.9492C7.64447 23.0254 7.92963 22.8789 8.08197 22.5059C8.23236 22.1328 8.04877 21.748 7.81439 21.666ZM4.70111 17.1816C4.40424 17.0996 4.09174 17.2266 3.97846 17.7012C3.86518 18.1758 4.10736 18.4805 4.34369 18.5312C4.61713 18.5918 4.90033 18.4219 5.03314 18.0273C5.164 17.6367 4.95111 17.25 4.70111 17.1816Z" fill="#B2E6FE"/>
<defs>
<radialGradient id="paint0_radial_308_47" cx="0" cy="0" r="1" gradientUnits="userSpaceOnUse" gradientTransform="translate(12.8535 14.7024) rotate(-88.3497) scale(5.74891 8.61245)">
<stop offset="0.193" stop-color="#FFE366"/>
<stop offset="0.331" stop-color="#EDDD82"/>
<stop offset="0.571" stop-color="#D0D4AD"/>
<stop offset="0.759" stop-color="#BFCFC7"/>
<stop offset="0.87" stop-color="#B8CDD1"/>
</radialGradient>
</defs>
</svg>
