<svg width="26" height="25" viewBox="0 0 26 25" fill="none" xmlns="http://www.w3.org/2000/svg">
<g clip-path="url(#clip0_308_69)">
<path d="M16.7778 1.69444C16.7778 1.69444 16.7778 0.694443 17.7778 0.694443C18.7778 0.694443 18.7778 1.69444 18.7778 1.69444V2.69444C18.7778 2.69444 18.7778 3.69444 17.7778 3.69444C16.7778 3.69444 16.7778 2.69444 16.7778 2.69444V1.69444ZM24.7778 7.69444C24.7778 7.69444 25.7778 7.69444 25.7778 8.69444C25.7778 9.69444 24.7778 9.69444 24.7778 9.69444H23.7778C23.7778 9.69444 22.7778 9.69444 22.7778 8.69444C22.7778 7.69444 23.7778 7.69444 23.7778 7.69444H24.7778ZM11.7778 7.69444C11.7778 7.69444 12.7778 7.69444 12.7778 8.69444C12.7778 9.69444 11.7778 9.69444 11.7778 9.69444H10.7778C10.7778 9.69444 9.77783 9.69444 9.77783 8.69444C9.77783 7.69444 10.7778 7.69444 10.7778 7.69444H11.7778ZM13.7138 3.71594C13.7138 3.71594 14.4208 4.42294 13.7138 5.12994C13.0068 5.83694 12.2998 5.12994 12.2998 5.12994L11.5923 4.42344C11.5923 4.42344 10.8853 3.71644 11.5923 3.00894C12.2998 2.30194 13.0068 3.00894 13.0068 3.00894L13.7138 3.71594ZM23.2563 5.12994C23.2563 5.12994 22.5493 5.83694 21.8423 5.12994C21.1353 4.42294 21.8423 3.71594 21.8423 3.71594L22.5493 3.00894C22.5493 3.00894 23.2563 2.30194 23.9633 3.00894C24.6703 3.71594 23.9633 4.42294 23.9633 4.42294L23.2563 5.12994Z" fill="#FFAC33"/>
<path d="M17.7778 13.1944C20.2631 13.1944 22.2778 11.1797 22.2778 8.69444C22.2778 6.20916 20.2631 4.19444 17.7778 4.19444C15.2926 4.19444 13.2778 6.20916 13.2778 8.69444C13.2778 11.1797 15.2926 13.1944 17.7778 13.1944Z" fill="#FFAC33"/>
<path d="M5.23242 18.0234C5.19141 18.0078 5.14649 18 5.10352 18.0039C4.84766 18.0215 3.51172 19.2129 3.16211 20.0723C2.92383 20.6582 3.20703 21.3281 3.79297 21.5664C4.37891 21.8047 5.05078 21.5215 5.28906 20.9356C5.55274 20.2852 5.625 18.1836 5.23242 18.0234ZM9.47656 21.1875C9.43555 21.1699 9.39063 21.1641 9.34766 21.168C9.0918 21.1856 7.75586 22.377 7.40625 23.2363C7.16797 23.8223 7.45117 24.4922 8.03711 24.7305C8.62305 24.9688 9.29492 24.6856 9.5332 24.0996C9.79688 23.4512 9.86914 21.3477 9.47656 21.1875ZM14.748 18.9238C14.707 18.9063 14.6621 18.9004 14.6191 18.9023C14.3633 18.9199 13.0273 20.1113 12.6777 20.9707C12.4395 21.5566 12.7227 22.2266 13.3086 22.4648C13.8945 22.7031 14.5664 22.4199 14.8047 21.834C15.0684 21.1856 15.1406 19.084 14.748 18.9238ZM19.5449 20.3086C19.5039 20.293 19.459 20.2852 19.416 20.2891C19.1602 20.3066 17.8242 21.4981 17.4746 22.3574C17.2363 22.9414 17.5195 23.6133 18.1055 23.8516C18.6914 24.0898 19.3633 23.8066 19.6016 23.2207C19.8652 22.5703 19.9375 20.4668 19.5449 20.3086Z" fill="#70B2E2"/>
<path d="M19.4453 10.3262C19.4434 10.3145 19.4453 10.3047 19.4453 10.293C19.4453 8.80078 18.2364 7.5918 16.7442 7.5918C16.5528 7.5918 16.3653 7.61328 16.1836 7.65039C15.6485 6.34766 14.3692 5.42969 12.8731 5.42969C11.75 5.42969 10.7481 5.94727 10.0918 6.75781C9.66995 6.54297 9.19339 6.41992 8.68558 6.41992C7.06839 6.41992 5.74222 7.65234 5.58792 9.22656C3.82815 9.31836 2.418 10.7598 2.39456 12.5469C2.37112 14.4102 3.86136 15.9395 5.72464 15.9629C5.86917 15.9648 6.01175 15.9551 6.15042 15.9395C6.86917 17.457 8.41604 18.5059 10.2071 18.5059C11.2871 18.5059 12.2793 18.123 13.0528 17.4883C13.6446 17.9258 14.375 18.1895 15.168 18.1895C16.795 18.1895 18.166 17.0977 18.5918 15.6074C18.8594 15.6973 19.1465 15.7461 19.4434 15.7461C20.9395 15.7461 22.1524 14.5332 22.1524 13.0371C22.1563 11.541 20.9414 10.3262 19.4453 10.3262Z" fill="#E3EBEE"/>
<path d="M21.0391 10.8438C21.6523 11.4629 21.2187 12.8848 20.7969 13.3496C19.9668 14.2598 18.4414 14.0469 17.8281 13.916C17.6621 13.8809 17.6367 13.8926 17.582 13.9258C17.5332 13.9551 17.5117 14.002 17.459 14.1133C17.2617 14.5371 16.7539 15.3613 15.6797 15.6934C14.5605 16.0391 13.5039 15.5137 13.0098 15.1973C12.8223 15.0781 12.8145 15.0762 12.7305 15.0762C12.6445 15.0762 12.5586 15.1406 12.459 15.2207C12.0137 15.5723 10.9922 16.1914 9.41992 16.1016C7.87695 16.0137 6.99609 15.0625 6.69336 14.5742C6.63477 14.4805 6.57227 14.4023 6.50195 14.3945C6.41992 14.3867 6.32812 14.4707 6.25781 14.5391C5.60156 15.1777 3.53711 15.3691 2.85156 14.2813C3.54687 15.3984 4.62305 15.9512 5.72852 15.9648C5.87305 15.9668 6.01562 15.957 6.1543 15.9414C6.87305 17.459 8.41992 18.5078 10.2109 18.5078C11.291 18.5078 12.2832 18.125 13.0566 17.4902C13.6484 17.9277 14.3789 18.1914 15.1719 18.1914C16.7988 18.1914 18.1699 17.0996 18.5957 15.6094C18.8633 15.6992 19.1504 15.748 19.4473 15.748C20.9434 15.748 22.1562 14.5352 22.1562 13.0391C22.1562 12.2402 21.7559 11.3398 21.0391 10.8438Z" fill="#B9CDD2"/>
</g>
<defs>
<clipPath id="clip0_308_69">
<rect width="25" height="25" fill="white" transform="translate(0.75)"/>
</clipPath>
</defs>
</svg>
