<svg width="28" height="26" viewBox="0 0 28 26" fill="none" xmlns="http://www.w3.org/2000/svg">
<path d="M7.87314 4.28145C9.40176 4.03377 10.9454 4.48205 12.108 5.51127C12.2909 5.67314 12.3078 5.95254 12.146 6.13536C11.9842 6.31824 11.7048 6.33525 11.5219 6.17337C10.5587 5.32068 9.28047 4.94924 8.0145 5.15427C5.68765 5.53123 4.10013 7.74017 4.47567 10.0784C4.49678 10.2099 4.52412 10.3416 4.55682 10.4695C4.61736 10.706 4.47468 10.9469 4.23821 11.0074C4.20141 11.0168 4.16455 11.0213 4.12824 11.0213C3.93114 11.0213 3.75138 10.8885 3.70025 10.6888C3.66082 10.5348 3.62801 10.3766 3.60258 10.2186C3.14999 7.39963 5.06569 4.73623 7.87314 4.28145ZM12.2331 4.47308C12.3111 4.52924 12.4014 4.55626 12.4908 4.55626C12.6283 4.55626 12.7637 4.49238 12.8501 4.37223L13.8855 2.9322C14.0281 2.73396 13.9829 2.45768 13.7847 2.31516C13.5864 2.17264 13.3102 2.21771 13.1677 2.416L12.1323 3.85609C11.9897 4.05434 12.0349 4.33056 12.2331 4.47308ZM7.22574 3.0343C7.26063 3.25163 7.44843 3.4064 7.66171 3.4064C7.68501 3.4064 7.70864 3.40459 7.73232 3.40076C7.97343 3.36204 8.13744 3.13526 8.09872 2.89419L7.81713 1.14058C7.77842 0.899461 7.5513 0.735508 7.31056 0.774172C7.06945 0.812891 6.90544 1.03968 6.94416 1.28074L7.22574 3.0343ZM1.7449 4.89866L3.17848 5.93865C3.2569 5.99553 3.34774 6.02293 3.4377 6.02293C3.57453 6.02293 3.70944 5.9596 3.7959 5.84038C3.93924 5.64274 3.89527 5.36635 3.69763 5.2229L2.26405 4.18296C2.0664 4.03962 1.79001 4.08365 1.64657 4.28123C1.50329 4.47888 1.54726 4.75532 1.7449 4.89866ZM0.546855 11.1563C0.570316 11.1563 0.594214 11.1544 0.618058 11.1505L2.36391 10.8676C2.60497 10.8286 2.7687 10.6015 2.7296 10.3605C2.69055 10.1195 2.46344 9.95573 2.22248 9.99483L0.476636 10.2777C0.235573 10.3167 0.0718385 10.5438 0.11094 10.7848C0.146214 11.0019 0.333792 11.1563 0.546855 11.1563ZM25.1149 8.3384C23.2396 6.44364 20.7576 5.4002 18.1263 5.4002C14.5388 5.4002 11.2284 7.35955 9.48669 10.5136C9.36868 10.7273 9.44628 10.9963 9.66 11.1143C9.87383 11.2324 10.1427 11.1548 10.2607 10.941C11.8468 8.06879 14.8608 6.28444 18.1264 6.28444C20.5198 6.28444 22.7785 7.2348 24.4865 8.96036C26.2067 10.6984 27.1403 12.9894 27.1154 15.4113C27.067 20.1222 23.3654 24.0395 18.6885 24.3292C18.6535 24.3314 17.9827 24.3474 17.9827 24.3474H6.92633C3.62894 24.3474 0.918567 21.6527 0.884496 18.3405C0.867817 16.717 1.4889 15.1813 2.63335 14.0165C3.76927 12.8604 5.27788 12.2172 6.88132 12.2055C7.49842 12.2004 8.13957 12.2993 8.78325 12.4978C9.14566 12.6095 9.90505 12.9867 10.1246 13.1247C11.9053 14.2433 12.9684 16.1691 12.9684 18.2763C12.9684 18.5205 13.1663 18.7184 13.4105 18.7184C13.6547 18.7184 13.8526 18.5205 13.8526 18.2763C13.8526 15.8631 12.6348 13.6574 10.595 12.376C10.333 12.2114 9.49785 11.7928 9.04372 11.6528C8.31348 11.4277 7.58411 11.3158 6.87481 11.3213C5.03468 11.3348 3.30437 12.0719 2.00258 13.3968C0.692215 14.7303 -0.0188336 16.4894 0.000252408 18.3496C0.0191743 20.1916 0.747832 21.9205 2.05186 23.2178C3.35742 24.5164 5.0885 25.2316 6.92622 25.2316H17.9531C17.9531 25.2316 18.824 25.2215 18.8727 25.2029C21.3119 25.0196 23.5815 23.94 25.276 22.1539C27.0063 20.3302 27.9734 17.9388 27.9993 15.4203C28.0269 12.7605 27.0024 10.2455 25.1149 8.3384Z" fill="black"/>
</svg>
